<svg width="30" height="30" viewBox="0 0 30 30" fill="none" xmlns="http://www.w3.org/2000/svg">
<rect width="30" height="30" rx="15" fill="#333333"/>
<path d="M9.17754 19.1371L9.65189 19.2952H9.65189L9.17754 19.1371ZM9.80187 17.2641L9.32752 17.106H9.32752L9.80187 17.2641ZM10.4461 16.2218L10.7996 16.5753L10.7996 16.5753L10.4461 16.2218ZM16.6676 10.0002L16.3141 9.64668V9.64668L16.6676 10.0002ZM20.0009 13.3336L20.3545 13.6871L20.3545 13.6871L20.0009 13.3336ZM13.7794 19.5551L13.4258 19.2015H13.4258L13.7794 19.5551ZM12.7371 20.1993L12.8952 20.6736H12.8952L12.7371 20.1993ZM10.8641 20.8236L11.0222 21.298H11.0222L10.8641 20.8236ZM13.4377 19.874L13.1366 19.4749L13.1366 19.4749L13.4377 19.874ZM13.1751 20.0363L12.9528 19.5885L13.1751 20.0363ZM20.8039 10.9269L20.3559 11.1489L20.3559 11.1489L20.8039 10.9269ZM20.8039 12.4069L20.3559 12.1849L20.3559 12.1849L20.8039 12.4069ZM17.5942 9.19723L17.8163 9.64524V9.64524L17.5942 9.19723ZM19.0743 9.19723L18.8523 9.64524L18.8523 9.64524L19.0743 9.19723ZM9.96486 16.826L10.4127 17.0484L10.4127 17.0484L9.96486 16.826ZM10.1271 16.5635L9.72797 16.2624L9.72797 16.2624L10.1271 16.5635ZM8.86696 20.6292L8.39601 20.7971L8.86696 20.6292ZM9.37199 21.1342L9.20405 21.6052H9.20405L9.37199 21.1342ZM16.1878 10.48C15.9926 10.2848 15.676 10.2848 15.4807 10.48C15.2854 10.6753 15.2854 10.9919 15.4807 11.1872L16.1878 10.48ZM18.814 14.5205C19.0093 14.7157 19.3259 14.7157 19.5212 14.5205C19.7164 14.3252 19.7164 14.0086 19.5212 13.8134L18.814 14.5205ZM9.65189 19.2952L10.2762 17.4222L9.32752 17.106L8.7032 18.979L9.65189 19.2952ZM10.7996 16.5753L17.0212 10.3538L16.3141 9.64668L10.0925 15.8682L10.7996 16.5753ZM19.6474 12.98L13.4258 19.2015L14.133 19.9087L20.3545 13.6871L19.6474 12.98ZM12.5789 19.725L10.706 20.3493L11.0222 21.298L12.8952 20.6736L12.5789 19.725ZM13.4258 19.2015C13.2504 19.377 13.1951 19.4307 13.1366 19.4749L13.7388 20.2732C13.8657 20.1775 13.9764 20.0652 14.133 19.9087L13.4258 19.2015ZM12.8952 20.6736C13.1052 20.6036 13.2552 20.5548 13.3975 20.4841L12.9528 19.5885C12.8871 19.6211 12.8143 19.6465 12.5789 19.725L12.8952 20.6736ZM13.1366 19.4749C13.079 19.5183 13.0174 19.5564 12.9528 19.5885L13.3975 20.4841C13.5175 20.4245 13.6318 20.3539 13.7388 20.2732L13.1366 19.4749ZM19.6474 10.3538C20.1303 10.8367 20.2801 10.9959 20.3559 11.1489L21.252 10.7049C21.0849 10.3677 20.7803 10.0725 20.3545 9.64668L19.6474 10.3538ZM20.3545 13.6871C20.7803 13.2613 21.0849 12.9661 21.252 12.6289L20.3559 12.1849C20.2801 12.3379 20.1303 12.4971 19.6474 12.98L20.3545 13.6871ZM20.3559 11.1489C20.5177 11.4753 20.5177 11.8585 20.3559 12.1849L21.252 12.6289C21.5523 12.0228 21.5523 11.3111 21.252 10.7049L20.3559 11.1489ZM17.0212 10.3538C17.5041 9.87087 17.6632 9.72107 17.8163 9.64524L17.3722 8.74922C17.0351 8.91628 16.7399 9.22086 16.3141 9.64668L17.0212 10.3538ZM20.3545 9.64668C19.9287 9.22085 19.6334 8.91628 19.2963 8.74922L18.8523 9.64524C19.0053 9.72107 19.1645 9.87087 19.6474 10.3538L20.3545 9.64668ZM17.8163 9.64524C18.1427 9.48349 18.5259 9.48349 18.8523 9.64524L19.2963 8.74922C18.6901 8.44883 17.9784 8.44883 17.3722 8.74922L17.8163 9.64524ZM10.2762 17.4222C10.3547 17.1868 10.3801 17.114 10.4127 17.0484L9.51702 16.6037C9.44636 16.746 9.39755 16.8959 9.32752 17.106L10.2762 17.4222ZM10.0925 15.8682C9.93594 16.0248 9.82367 16.1355 9.72797 16.2624L10.5263 16.8646C10.5704 16.8061 10.6242 16.7508 10.7996 16.5753L10.0925 15.8682ZM10.4127 17.0484C10.4448 16.9837 10.4828 16.9222 10.5263 16.8646L9.72797 16.2624C9.64725 16.3694 9.57663 16.4836 9.51702 16.6037L10.4127 17.0484ZM8.7032 18.979C8.57065 19.3766 8.45978 19.7077 8.39753 19.9726C8.33702 20.2301 8.29702 20.5195 8.39601 20.7971L9.33792 20.4612C9.34037 20.4681 9.31995 20.4186 9.37101 20.2013C9.42033 19.9914 9.51303 19.7118 9.65189 19.2952L8.7032 18.979ZM10.706 20.3493C10.2894 20.4881 10.0097 20.5808 9.79985 20.6302C9.58253 20.6812 9.53306 20.6608 9.53993 20.6633L9.20405 21.6052C9.48165 21.7042 9.7711 21.6642 10.0286 21.6036C10.2935 21.5414 10.6245 21.4305 11.0222 21.298L10.706 20.3493ZM8.39601 20.7971C8.53044 21.1741 8.82708 21.4707 9.20405 21.6052L9.53993 20.6633C9.44568 20.6296 9.37152 20.5555 9.33792 20.4612L8.39601 20.7971ZM15.4807 11.1872L18.814 14.5205L19.5212 13.8134L16.1878 10.48L15.4807 11.1872Z" fill="white"/>
</svg>
