<svg width="24" height="24" viewBox="0 0 24 24" fill="none" xmlns="http://www.w3.org/2000/svg">
<path d="M8 10C9.10457 10 10 9.10457 10 8C10 6.89543 9.10457 6 8 6C6.89543 6 6 6.89543 6 8C6 9.10457 6.89543 10 8 10Z" fill="#333333"/>
<path fill-rule="evenodd" clip-rule="evenodd" d="M2 5C2 3.34315 3.34315 2 5 2H19C20.6569 2 22 3.34315 22 5V19C22 20.6569 20.6569 22 19 22H5C3.34315 22 2 20.6569 2 19V5ZM20 5V14.5858L17.7071 12.2929C17.3166 11.9024 16.6834 11.9024 16.2929 12.2929L12.5 16.0858L10.7071 14.2929C10.3376 13.9234 9.74595 13.9007 9.34921 14.2407L4 18.8258V5C4 4.44772 4.44772 4 5 4H19C19.5523 4 20 4.44772 20 5ZM9.9477 16.3619L5.70326 20H19C19.5523 20 20 19.5523 20 19V17.4142L17 14.4142L13.2071 18.2071C12.8166 18.5976 12.1834 18.5976 11.7929 18.2071L9.9477 16.3619Z" fill="#333333"/>
</svg>
