<svg width="20" height="16" viewBox="0 0 20 16" fill="none" xmlns="http://www.w3.org/2000/svg">
<mask id="path-1-outside-1_1233_8733" maskUnits="userSpaceOnUse" x="0" y="0" width="20" height="16" fill="black">
<rect fill="white" width="20" height="16"/>
<path fill-rule="evenodd" clip-rule="evenodd" d="M7.94891 12.8928C7.55646 13.2018 6.98607 13.1753 6.62413 12.8133L2.29289 8.4821C1.90237 8.09157 1.90237 7.45841 2.29289 7.06788C2.68342 6.67736 3.31658 6.67736 3.70711 7.06788L7.37686 10.7376L16.305 2.27426C16.7058 1.89431 17.3387 1.91122 17.7187 2.31204C18.0986 2.71285 18.0817 3.34579 17.6809 3.72575L8.18772 12.7248C8.11482 12.7939 8.03424 12.8499 7.94891 12.8928Z"/>
</mask>
<path fill-rule="evenodd" clip-rule="evenodd" d="M7.94891 12.8928C7.55646 13.2018 6.98607 13.1753 6.62413 12.8133L2.29289 8.4821C1.90237 8.09157 1.90237 7.45841 2.29289 7.06788C2.68342 6.67736 3.31658 6.67736 3.70711 7.06788L7.37686 10.7376L16.305 2.27426C16.7058 1.89431 17.3387 1.91122 17.7187 2.31204C18.0986 2.71285 18.0817 3.34579 17.6809 3.72575L8.18772 12.7248C8.11482 12.7939 8.03424 12.8499 7.94891 12.8928Z" fill="#1DA1F2"/>
<path d="M6.62413 12.8133L8.03834 11.3991L8.03834 11.3991L6.62413 12.8133ZM7.94891 12.8928L7.05017 11.1061C6.93042 11.1663 6.81703 11.2384 6.71171 11.3214L7.94891 12.8928ZM2.29289 8.4821L0.878679 9.89631H0.87868L2.29289 8.4821ZM2.29289 7.06788L0.87868 5.65367V5.65367L2.29289 7.06788ZM3.70711 7.06788L2.29289 8.4821H2.29289L3.70711 7.06788ZM7.37686 10.7376L5.96264 12.1518C6.72898 12.9182 7.96626 12.9347 8.75279 12.1891L7.37686 10.7376ZM16.305 2.27426L17.6809 3.72574V3.72574L16.305 2.27426ZM17.7187 2.31204L19.1702 0.936103L17.7187 2.31204ZM17.6809 3.72575L19.0568 5.17723L19.0568 5.17723L17.6809 3.72575ZM8.18772 12.7248L9.56365 14.1763L9.56365 14.1763L8.18772 12.7248ZM5.20991 14.2275C6.29678 15.3144 8.0071 15.3924 9.1861 14.4642L6.71171 11.3214C7.10581 11.0111 7.67537 11.0361 8.03834 11.3991L5.20991 14.2275ZM0.87868 9.89631L5.20991 14.2275L8.03834 11.3991L3.70711 7.06788L0.87868 9.89631ZM0.87868 5.65367C-0.292893 6.82524 -0.292893 8.72474 0.878679 9.89631L3.70711 7.06788C4.09763 7.45841 4.09763 8.09157 3.70711 8.4821L0.87868 5.65367ZM5.12132 5.65367C3.94975 4.4821 2.05025 4.4821 0.87868 5.65367L3.70711 8.4821C3.31658 8.87262 2.68342 8.87262 2.29289 8.4821L5.12132 5.65367ZM8.79107 9.32342L5.12132 5.65367L2.29289 8.4821L5.96264 12.1518L8.79107 9.32342ZM8.75279 12.1891L17.6809 3.72574L14.929 0.822774L6.00093 9.28615L8.75279 12.1891ZM17.6809 3.72574C17.2801 4.1057 16.6471 4.08878 16.2672 3.68797L19.1702 0.936103C18.0303 -0.266346 16.1315 -0.317086 14.929 0.822774L17.6809 3.72574ZM16.2672 3.68797C15.8872 3.28715 15.9041 2.65421 16.305 2.27426L19.0568 5.17723C20.2593 4.03737 20.31 2.13856 19.1702 0.936103L16.2672 3.68797ZM16.305 2.27426L6.81179 11.2733L9.56365 14.1763L19.0568 5.17723L16.305 2.27426ZM6.81179 11.2733C6.88225 11.2065 6.96281 11.15 7.05017 11.1061L8.84765 14.6795C9.10568 14.5497 9.34739 14.3813 9.56365 14.1763L6.81179 11.2733Z" fill="white" mask="url(#path-1-outside-1_1233_8733)"/>
</svg>
