<svg width="198" height="48" viewBox="0 0 198 48" fill="none" xmlns="http://www.w3.org/2000/svg">
<g filter="url(#filter0_dd_1422_8836)">
<rect x="2" y="1" width="194" height="44" rx="6" fill="white" shape-rendering="crispEdges"/>
<path fill-rule="evenodd" clip-rule="evenodd" d="M59.64 23.2042C59.64 22.566 59.5827 21.9524 59.4764 21.3633H51V24.8446H55.8436C55.635 25.9696 55.0009 26.9228 54.0477 27.561V29.8192H56.9564C58.6582 28.2524 59.64 25.9451 59.64 23.2042Z" fill="#4285F4"/>
<path fill-rule="evenodd" clip-rule="evenodd" d="M50.9998 32C53.4298 32 55.467 31.1941 56.9561 29.8195L54.0475 27.5613C53.2416 28.1013 52.2107 28.4204 50.9998 28.4204C48.6557 28.4204 46.6716 26.8372 45.9638 24.71H42.957V27.0418C44.4379 29.9831 47.4816 32 50.9998 32Z" fill="#34A853"/>
<path fill-rule="evenodd" clip-rule="evenodd" d="M45.9641 24.7098C45.7841 24.1698 45.6818 23.593 45.6818 22.9998C45.6818 22.4066 45.7841 21.8298 45.9641 21.2898V18.958H42.9573C42.3477 20.173 42 21.5476 42 22.9998C42 24.4521 42.3477 25.8266 42.9573 27.0416L45.9641 24.7098Z" fill="#FBBC05"/>
<path fill-rule="evenodd" clip-rule="evenodd" d="M50.9998 17.5795C52.3211 17.5795 53.5075 18.0336 54.4402 18.9255L57.0216 16.3441C55.4629 14.8918 53.4257 14 50.9998 14C47.4816 14 44.4379 16.0168 42.957 18.9582L45.9638 21.29C46.6716 19.1627 48.6557 17.5795 50.9998 17.5795Z" fill="#EA4335"/>
<path d="M84.5107 23.0439V26.6875C84.3877 26.8698 84.1917 27.0749 83.9229 27.3027C83.654 27.526 83.2826 27.722 82.8086 27.8906C82.3392 28.0547 81.7331 28.1367 80.9902 28.1367C80.3841 28.1367 79.8258 28.0319 79.3154 27.8223C78.8096 27.6081 78.3698 27.2982 77.9961 26.8926C77.627 26.4824 77.3398 25.9857 77.1348 25.4023C76.9342 24.8145 76.834 24.1491 76.834 23.4062V22.6338C76.834 21.891 76.9206 21.2279 77.0938 20.6445C77.2715 20.0612 77.5312 19.5667 77.873 19.1611C78.2148 18.751 78.6341 18.4411 79.1309 18.2314C79.6276 18.0173 80.1973 17.9102 80.8398 17.9102C81.6009 17.9102 82.2367 18.0423 82.7471 18.3066C83.262 18.5664 83.6631 18.9264 83.9502 19.3867C84.2419 19.847 84.4287 20.3711 84.5107 20.959H83.1914C83.1322 20.599 83.0137 20.2708 82.8359 19.9746C82.6628 19.6784 82.4144 19.4414 82.0908 19.2637C81.7673 19.0814 81.3503 18.9902 80.8398 18.9902C80.3796 18.9902 79.9808 19.0745 79.6436 19.2432C79.3063 19.4118 79.0283 19.6533 78.8096 19.9678C78.5908 20.2822 78.4268 20.6628 78.3174 21.1094C78.2126 21.556 78.1602 22.0596 78.1602 22.6201V23.4062C78.1602 23.9805 78.2262 24.4932 78.3584 24.9443C78.4951 25.3955 78.6888 25.7806 78.9395 26.0996C79.1901 26.4141 79.4886 26.6533 79.835 26.8174C80.1859 26.9814 80.5732 27.0635 80.9971 27.0635C81.4665 27.0635 81.847 27.0247 82.1387 26.9473C82.4303 26.8652 82.6582 26.7695 82.8223 26.6602C82.9863 26.5462 83.1117 26.4391 83.1982 26.3389V24.1104H80.8945V23.0439H84.5107ZM85.3319 24.3838V24.2266C85.3319 23.6934 85.4093 23.1989 85.5643 22.7432C85.7192 22.2829 85.9426 21.8841 86.2342 21.5469C86.5259 21.2051 86.8791 20.9408 87.2938 20.7539C87.7085 20.5625 88.1733 20.4668 88.6883 20.4668C89.2079 20.4668 89.675 20.5625 90.0897 20.7539C90.509 20.9408 90.8644 21.2051 91.1561 21.5469C91.4523 21.8841 91.6779 22.2829 91.8329 22.7432C91.9878 23.1989 92.0653 23.6934 92.0653 24.2266V24.3838C92.0653 24.917 91.9878 25.4115 91.8329 25.8672C91.6779 26.3229 91.4523 26.7217 91.1561 27.0635C90.8644 27.4007 90.5112 27.665 90.0965 27.8564C89.6864 28.0433 89.2215 28.1367 88.702 28.1367C88.1825 28.1367 87.7153 28.0433 87.3006 27.8564C86.8859 27.665 86.5304 27.4007 86.2342 27.0635C85.9426 26.7217 85.7192 26.3229 85.5643 25.8672C85.4093 25.4115 85.3319 24.917 85.3319 24.3838ZM86.5965 24.2266V24.3838C86.5965 24.7529 86.6398 25.1016 86.7264 25.4297C86.813 25.7533 86.9429 26.0404 87.1161 26.291C87.2938 26.5417 87.5148 26.7399 87.7791 26.8857C88.0435 27.027 88.3511 27.0977 88.702 27.0977C89.0483 27.0977 89.3514 27.027 89.6112 26.8857C89.8755 26.7399 90.0942 26.5417 90.2674 26.291C90.4406 26.0404 90.5705 25.7533 90.6571 25.4297C90.7482 25.1016 90.7938 24.7529 90.7938 24.3838V24.2266C90.7938 23.862 90.7482 23.5179 90.6571 23.1943C90.5705 22.8662 90.4383 22.5768 90.2606 22.3262C90.0874 22.071 89.8687 21.8704 89.6043 21.7246C89.3446 21.5788 89.0392 21.5059 88.6883 21.5059C88.342 21.5059 88.0366 21.5788 87.7723 21.7246C87.5125 21.8704 87.2938 22.071 87.1161 22.3262C86.9429 22.5768 86.813 22.8662 86.7264 23.1943C86.6398 23.5179 86.5965 23.862 86.5965 24.2266ZM92.4762 24.3838V24.2266C92.4762 23.6934 92.5537 23.1989 92.7087 22.7432C92.8636 22.2829 93.0869 21.8841 93.3786 21.5469C93.6703 21.2051 94.0235 20.9408 94.4382 20.7539C94.8529 20.5625 95.3177 20.4668 95.8327 20.4668C96.3522 20.4668 96.8193 20.5625 97.2341 20.7539C97.6533 20.9408 98.0088 21.2051 98.3005 21.5469C98.5967 21.8841 98.8223 22.2829 98.9772 22.7432C99.1322 23.1989 99.2096 23.6934 99.2096 24.2266V24.3838C99.2096 24.917 99.1322 25.4115 98.9772 25.8672C98.8223 26.3229 98.5967 26.7217 98.3005 27.0635C98.0088 27.4007 97.6556 27.665 97.2409 27.8564C96.8307 28.0433 96.3659 28.1367 95.8464 28.1367C95.3268 28.1367 94.8597 28.0433 94.445 27.8564C94.0303 27.665 93.6748 27.4007 93.3786 27.0635C93.0869 26.7217 92.8636 26.3229 92.7087 25.8672C92.5537 25.4115 92.4762 24.917 92.4762 24.3838ZM93.7409 24.2266V24.3838C93.7409 24.7529 93.7842 25.1016 93.8708 25.4297C93.9574 25.7533 94.0873 26.0404 94.2604 26.291C94.4382 26.5417 94.6592 26.7399 94.9235 26.8857C95.1878 27.027 95.4955 27.0977 95.8464 27.0977C96.1927 27.0977 96.4958 27.027 96.7555 26.8857C97.0199 26.7399 97.2386 26.5417 97.4118 26.291C97.585 26.0404 97.7149 25.7533 97.8014 25.4297C97.8926 25.1016 97.9382 24.7529 97.9382 24.3838V24.2266C97.9382 23.862 97.8926 23.5179 97.8014 23.1943C97.7149 22.8662 97.5827 22.5768 97.405 22.3262C97.2318 22.071 97.013 21.8704 96.7487 21.7246C96.4889 21.5788 96.1836 21.5059 95.8327 21.5059C95.4863 21.5059 95.181 21.5788 94.9167 21.7246C94.6569 21.8704 94.4382 22.071 94.2604 22.3262C94.0873 22.5768 93.9574 22.8662 93.8708 23.1943C93.7842 23.5179 93.7409 23.862 93.7409 24.2266ZM104.748 20.6035H105.896V27.8428C105.896 28.4945 105.764 29.0505 105.5 29.5107C105.235 29.971 104.866 30.3197 104.392 30.5566C103.923 30.7982 103.38 30.9189 102.765 30.9189C102.51 30.9189 102.209 30.8779 101.863 30.7959C101.521 30.7184 101.184 30.584 100.851 30.3926C100.523 30.2057 100.247 29.9528 100.024 29.6338L100.687 28.8818C100.997 29.2555 101.32 29.5153 101.658 29.6611C102 29.807 102.337 29.8799 102.669 29.8799C103.07 29.8799 103.417 29.8047 103.709 29.6543C104 29.5039 104.226 29.2806 104.385 28.9844C104.549 28.6927 104.631 28.3327 104.631 27.9043V22.2305L104.748 20.6035ZM99.6548 24.3838V24.2402C99.6548 23.6751 99.7209 23.1624 99.853 22.7021C99.9898 22.2373 100.183 21.8385 100.434 21.5059C100.689 21.1732 100.997 20.918 101.357 20.7402C101.717 20.5579 102.123 20.4668 102.574 20.4668C103.039 20.4668 103.444 20.5488 103.791 20.7129C104.141 20.8724 104.438 21.1071 104.679 21.417C104.925 21.7223 105.119 22.0915 105.26 22.5244C105.402 22.9574 105.5 23.4473 105.554 23.9941V24.623C105.504 25.1654 105.406 25.653 105.26 26.0859C105.119 26.5189 104.925 26.888 104.679 27.1934C104.438 27.4987 104.141 27.7334 103.791 27.8975C103.44 28.057 103.029 28.1367 102.56 28.1367C102.118 28.1367 101.717 28.0433 101.357 27.8564C101.001 27.6696 100.696 27.4076 100.441 27.0703C100.186 26.7331 99.9898 26.3366 99.853 25.8809C99.7209 25.4206 99.6548 24.9215 99.6548 24.3838ZM100.919 24.2402V24.3838C100.919 24.7529 100.956 25.0993 101.029 25.4229C101.106 25.7464 101.223 26.0312 101.377 26.2773C101.537 26.5234 101.74 26.7171 101.986 26.8584C102.232 26.9951 102.526 27.0635 102.868 27.0635C103.287 27.0635 103.633 26.9746 103.907 26.7969C104.18 26.6191 104.397 26.3844 104.556 26.0928C104.72 25.8011 104.848 25.4844 104.939 25.1426V23.4951C104.889 23.2445 104.811 23.0029 104.707 22.7705C104.606 22.5335 104.474 22.3239 104.31 22.1416C104.151 21.9548 103.952 21.8066 103.715 21.6973C103.478 21.5879 103.2 21.5332 102.881 21.5332C102.535 21.5332 102.237 21.6061 101.986 21.752C101.74 21.8932 101.537 22.0892 101.377 22.3398C101.223 22.5859 101.106 22.873 101.029 23.2012C100.956 23.5247 100.919 23.8711 100.919 24.2402ZM108.351 17.5V28H107.079V17.5H108.351ZM112.611 28.1367C112.096 28.1367 111.628 28.0501 111.209 27.877C110.794 27.6992 110.437 27.4508 110.136 27.1318C109.84 26.8128 109.612 26.4346 109.452 25.9971C109.293 25.5596 109.213 25.0811 109.213 24.5615V24.2744C109.213 23.6729 109.302 23.1374 109.48 22.668C109.657 22.194 109.899 21.793 110.204 21.4648C110.51 21.1367 110.856 20.8883 111.243 20.7197C111.631 20.5511 112.032 20.4668 112.446 20.4668C112.975 20.4668 113.431 20.5579 113.814 20.7402C114.201 20.9225 114.518 21.1777 114.764 21.5059C115.01 21.8294 115.192 22.2122 115.311 22.6543C115.429 23.0918 115.488 23.5703 115.488 24.0898V24.6572H109.965V23.625H114.224V23.5293C114.206 23.2012 114.137 22.8822 114.019 22.5723C113.905 22.2624 113.723 22.0072 113.472 21.8066C113.221 21.6061 112.879 21.5059 112.446 21.5059C112.159 21.5059 111.895 21.5674 111.654 21.6904C111.412 21.8089 111.205 21.9867 111.031 22.2236C110.858 22.4606 110.724 22.75 110.628 23.0918C110.532 23.4336 110.485 23.8278 110.485 24.2744V24.5615C110.485 24.9124 110.532 25.2428 110.628 25.5527C110.728 25.8581 110.872 26.127 111.059 26.3594C111.25 26.5918 111.48 26.7741 111.749 26.9062C112.023 27.0384 112.333 27.1045 112.679 27.1045C113.126 27.1045 113.504 27.0133 113.814 26.8311C114.124 26.6488 114.395 26.4049 114.627 26.0996L115.393 26.708C115.233 26.9495 115.03 27.1797 114.784 27.3984C114.538 27.6172 114.235 27.7949 113.875 27.9316C113.52 28.0684 113.098 28.1367 112.611 28.1367ZM118.494 26.572H129.96V27.538H118.494V26.572ZM123.618 23.856H124.78V26.978H123.618V23.856ZM119.88 17.374H128.546V21.21H121.07V23.744H119.922V20.272H127.398V18.312H119.88V17.374ZM119.922 23.254H128.84V24.206H119.922V23.254ZM131.765 17.78H139.913V18.718H131.765V17.78ZM130.533 26.278H141.971V27.244H130.533V26.278ZM139.297 17.78H140.431V19.04C140.431 20.664 140.431 22.47 139.955 25.2L138.793 25.088C139.297 22.498 139.297 20.608 139.297 19.04V17.78ZM151.77 16.45H152.946V25.69H151.77V16.45ZM144.812 27.86H153.324V28.812H144.812V27.86ZM144.812 24.738H145.96V28.182H144.812V24.738ZM146.156 17.318C148.046 17.318 149.446 18.606 149.446 20.44C149.446 22.26 148.046 23.562 146.156 23.562C144.266 23.562 142.852 22.26 142.852 20.44C142.852 18.606 144.266 17.318 146.156 17.318ZM146.156 18.326C144.924 18.326 143.986 19.194 143.986 20.44C143.986 21.672 144.924 22.54 146.156 22.54C147.388 22.54 148.326 21.672 148.326 20.44C148.326 19.194 147.388 18.326 146.156 18.326Z" fill="black" fill-opacity="0.54"/>
</g>
<defs>
<filter id="filter0_dd_1422_8836" x="0" y="0" width="198" height="48" filterUnits="userSpaceOnUse" color-interpolation-filters="sRGB">
<feFlood flood-opacity="0" result="BackgroundImageFix"/>
<feColorMatrix in="SourceAlpha" type="matrix" values="0 0 0 0 0 0 0 0 0 0 0 0 0 0 0 0 0 0 127 0" result="hardAlpha"/>
<feOffset dy="1"/>
<feGaussianBlur stdDeviation="1"/>
<feComposite in2="hardAlpha" operator="out"/>
<feColorMatrix type="matrix" values="0 0 0 0 0 0 0 0 0 0 0 0 0 0 0 0 0 0 0.25 0"/>
<feBlend mode="normal" in2="BackgroundImageFix" result="effect1_dropShadow_1422_8836"/>
<feColorMatrix in="SourceAlpha" type="matrix" values="0 0 0 0 0 0 0 0 0 0 0 0 0 0 0 0 0 0 127 0" result="hardAlpha"/>
<feOffset/>
<feComposite in2="hardAlpha" operator="out"/>
<feColorMatrix type="matrix" values="0 0 0 0 0 0 0 0 0 0 0 0 0 0 0 0 0 0 0.08 0"/>
<feBlend mode="normal" in2="effect1_dropShadow_1422_8836" result="effect2_dropShadow_1422_8836"/>
<feBlend mode="normal" in="SourceGraphic" in2="effect2_dropShadow_1422_8836" result="shape"/>
</filter>
</defs>
</svg>
