<svg width="14" height="12" viewBox="0 0 14 12" fill="none" xmlns="http://www.w3.org/2000/svg">
<path d="M0.940317 5.21818L1.39462 5.427L1.39462 5.427L0.940317 5.21818ZM13.0615 6.78052L12.6072 6.5717L13.0615 6.78052ZM0.940317 6.78053L0.486011 6.98935H0.486011L0.940317 6.78053ZM13.0615 5.21818L12.6072 5.427L13.0615 5.21818ZM10.8887 1.97788C10.6568 1.82789 10.3473 1.89427 10.1973 2.12613C10.0473 2.35799 10.1137 2.66753 10.3455 2.81752L10.8887 1.97788ZM3.68531 9.1998C3.45262 9.05111 3.14344 9.11921 2.99475 9.3519C2.84606 9.58459 2.91416 9.89376 3.14685 10.0425L3.68531 9.1998ZM1.26785 8.30034C1.43373 8.52111 1.74716 8.56562 1.96794 8.39975C2.18871 8.23388 2.23322 7.92044 2.06735 7.69966L1.26785 8.30034ZM8.2348 1.95605C8.50542 2.01098 8.76934 1.83613 8.82427 1.56551C8.87921 1.29488 8.70436 1.03097 8.43373 0.976034L8.2348 1.95605ZM12.6878 1.01957C12.8831 0.824307 12.8831 0.507724 12.6878 0.312462C12.4926 0.1172 12.176 0.1172 11.9807 0.312462L12.6878 1.01957ZM1.31404 10.9791C1.11878 11.1744 1.11878 11.491 1.31404 11.6862C1.5093 11.8815 1.82588 11.8815 2.02115 11.6862L1.31404 10.9791ZM7.00093 0.832682C4.10925 0.832682 1.61862 2.54528 0.486011 5.00936L1.39462 5.427C2.37015 3.30466 4.51417 1.83268 7.00093 1.83268V0.832682ZM7.00093 11.166C9.89261 11.166 12.3832 9.45343 13.5159 6.98934L12.6072 6.5717C11.6317 8.69404 9.4877 10.166 7.00093 10.166V11.166ZM0.486011 5.00936C0.197371 5.63732 0.197371 6.36139 0.486011 6.98935L1.39462 6.5717C1.22783 6.20884 1.22783 5.78986 1.39462 5.427L0.486011 5.00936ZM12.6072 5.427C12.774 5.78986 12.774 6.20884 12.6072 6.5717L13.5159 6.98934C13.8045 6.36139 13.8045 5.63731 13.5159 5.00936L12.6072 5.427ZM13.5159 5.00936C12.9443 3.76583 12.0276 2.71465 10.8887 1.97788L10.3455 2.81752C11.3264 3.45202 12.1156 4.3574 12.6072 5.427L13.5159 5.00936ZM3.14685 10.0425C4.26004 10.7538 5.58311 11.166 7.00093 11.166V10.166C5.77954 10.166 4.6425 9.81145 3.68531 9.1998L3.14685 10.0425ZM0.486011 6.98935C0.700317 7.45558 0.963107 7.89473 1.26785 8.30034L2.06735 7.69966C1.80496 7.35043 1.57888 6.97257 1.39462 6.5717L0.486011 6.98935ZM8.43373 0.976034C7.97037 0.881975 7.49115 0.832682 7.00093 0.832682V1.83268C7.42396 1.83268 7.83654 1.8752 8.2348 1.95605L8.43373 0.976034ZM5.23316 7.76712C6.20948 8.74343 7.79239 8.74343 8.7687 7.76712L8.06159 7.06001C7.4758 7.6458 6.52606 7.6458 5.94027 7.06001L5.23316 7.76712ZM8.7687 7.76712C9.74501 6.79081 9.74501 5.20789 8.7687 4.23158L8.06159 4.93869C8.64738 5.52448 8.64738 6.47422 8.06159 7.06001L8.7687 7.76712ZM11.9807 0.312462L1.31404 10.9791L2.02115 11.6862L12.6878 1.01957L11.9807 0.312462Z" fill="#CCCCCC"/>
</svg>
