<svg width="24" height="24" viewBox="0 0 24 24" fill="none" xmlns="http://www.w3.org/2000/svg">
<g clip-path="url(#clip0_2434_10815)">
<path d="M19.6077 19.1937C19.2111 18.4166 18.6877 17.6875 18.0374 17.0373C14.7031 13.7029 9.29705 13.7029 5.96272 17.0373C5.31247 17.6875 4.78903 18.4166 4.3924 19.1937M1 12C1 5.92487 5.92487 0.999999 12 1C18.0751 1 23 5.92487 23 12C23 18.0751 18.0751 23 12 23C5.92487 23 0.999999 18.0751 1 12ZM16 10C16 12.2091 14.2091 14 12 14C9.79086 14 8 12.2091 8 10C8 7.79086 9.79086 6 12 6C14.2091 6 16 7.79086 16 10Z" stroke="white" stroke-width="2"/>
</g>
<defs>
<clipPath id="clip0_2434_10815">
<rect width="24" height="24" fill="white"/>
</clipPath>
</defs>
</svg>
