<svg width="350" height="100" viewBox="0 0 350 100" fill="none" xmlns="http://www.w3.org/2000/svg">
<path fill-rule="evenodd" clip-rule="evenodd" d="M0 2C0 0.895431 0.895435 0 2 0H348C349.105 0 350 0.895431 350 2V18C350 19.1046 349.096 19.9791 348.013 20.1975C343.442 21.1191 340 25.1576 340 30C340 34.8424 343.442 38.8809 348.013 39.8025C349.096 40.0209 350 40.8954 350 42V58C350 59.1046 349.096 59.9791 348.013 60.1975C343.442 61.1191 340 65.1576 340 70C340 74.8424 343.442 78.881 348.013 79.8026C349.096 80.0209 350 80.8954 350 82V98C350 99.1046 349.105 100 348 100H2C0.895431 100 0 99.1046 0 98V82C0 80.8954 0.90445 80.0209 1.98723 79.8025C6.55807 78.881 10 74.8424 10 70C10 65.1576 6.55807 61.1191 1.98723 60.1975C0.904452 59.9791 0 59.1046 0 58V42C0 40.8954 0.90445 40.0209 1.98723 39.8025C6.55807 38.8809 10 34.8424 10 30C10 25.1576 6.55807 21.1191 1.98723 20.1975C0.904452 19.9791 0 19.1046 0 18V2Z" fill="url(#paint0_linear_1233_13186)"/>
<defs>
<linearGradient id="paint0_linear_1233_13186" x1="1.68953e-06" y1="45.5555" x2="350" y2="45.5555" gradientUnits="userSpaceOnUse">
<stop stop-color="#CA8888"/>
<stop offset="1" stop-color="#29556D"/>
</linearGradient>
</defs>
</svg>
