<svg width="40" height="40" viewBox="0 0 40 40" fill="none" xmlns="http://www.w3.org/2000/svg">
<circle cx="20" cy="20" r="19.5" fill="white" stroke="#DDDDDD"/>
<path fill-rule="evenodd" clip-rule="evenodd" d="M28.64 20.2042C28.64 19.566 28.5827 18.9524 28.4764 18.3633H20V21.8446H24.8436C24.635 22.9696 24.0009 23.9228 23.0477 24.561V26.8192H25.9564C27.6582 25.2524 28.64 22.9451 28.64 20.2042Z" fill="#4285F4"/>
<path fill-rule="evenodd" clip-rule="evenodd" d="M19.9998 29.0009C22.4298 29.0009 24.467 28.195 25.9561 26.8205L23.0475 24.5623C22.2416 25.1023 21.2107 25.4214 19.9998 25.4214C17.6557 25.4214 15.6716 23.8382 14.9638 21.7109H11.957V24.0428C13.4379 26.9841 16.4816 29.0009 19.9998 29.0009Z" fill="#34A853"/>
<path fill-rule="evenodd" clip-rule="evenodd" d="M14.9641 21.7108C14.7841 21.1708 14.6818 20.594 14.6818 20.0008C14.6818 19.4076 14.7841 18.8308 14.9641 18.2908V15.959H11.9573C11.3477 17.174 11 18.5485 11 20.0008C11 21.4531 11.3477 22.8276 11.9573 24.0426L14.9641 21.7108Z" fill="#FBBC05"/>
<path fill-rule="evenodd" clip-rule="evenodd" d="M19.9998 14.5795C21.3211 14.5795 22.5075 15.0336 23.4402 15.9255L26.0216 13.3441C24.4629 11.8918 22.4257 11 19.9998 11C16.4816 11 13.4379 13.0168 11.957 15.9582L14.9638 18.29C15.6716 16.1627 17.6557 14.5795 19.9998 14.5795Z" fill="#EA4335"/>
</svg>
