<svg width="36" height="36" viewBox="0 0 36 36" fill="none" xmlns="http://www.w3.org/2000/svg">
<path d="M18 9.25C18.9665 9.25 19.75 10.0335 19.75 11V16.25H25C25.9665 16.25 26.75 17.0335 26.75 18C26.75 18.9665 25.9665 19.75 25 19.75H19.75V25C19.75 25.9665 18.9665 26.75 18 26.75C17.0335 26.75 16.25 25.9665 16.25 25V19.75H11C10.0335 19.75 9.25 18.9665 9.25 18C9.25 17.0335 10.0335 16.25 11 16.25H16.25V11C16.25 10.0335 17.0335 9.25 18 9.25Z" fill="#ADADAD"/>
<path fill-rule="evenodd" clip-rule="evenodd" d="M18 0.5C8.33502 0.5 0.5 8.33502 0.5 18C0.5 27.665 8.33502 35.5 18 35.5C27.665 35.5 35.5 27.665 35.5 18C35.5 8.33502 27.665 0.5 18 0.5ZM4 18C4 10.268 10.268 4 18 4C25.732 4 32 10.268 32 18C32 25.732 25.732 32 18 32C10.268 32 4 25.732 4 18Z" fill="#ADADAD"/>
</svg>
