<svg width="24" height="24" viewBox="0 0 24 24" fill="none" xmlns="http://www.w3.org/2000/svg">
<path d="M2.90852 10.8282L3.81713 11.2459L3.81713 11.2459L2.90852 10.8282ZM21.0904 13.1718L20.1818 12.7541L21.0904 13.1718ZM2.90852 13.1718L1.99991 13.5894H1.99991L2.90852 13.1718ZM21.0904 10.8282L20.1818 11.2459V11.2459L21.0904 10.8282ZM17.9668 5.75789C17.5031 5.45792 16.884 5.59066 16.584 6.05438C16.2841 6.5181 16.4168 7.13719 16.8805 7.43716L17.9668 5.75789ZM7.16062 16.59C6.69524 16.2926 6.07689 16.4288 5.77951 16.8942C5.48213 17.3596 5.61833 17.9779 6.08371 18.2753L7.16062 16.59ZM3.19995 15.6017C3.5317 16.0432 4.15857 16.1322 4.60012 15.8005C5.04167 15.4687 5.13068 14.8418 4.79894 14.4003L3.19995 15.6017ZM13.8005 6.18005C14.3418 6.28992 14.8696 5.94022 14.9795 5.39897C15.0893 4.85772 14.7396 4.32989 14.1984 4.22002L13.8005 6.18005ZM20.7065 4.70711C21.0971 4.31658 21.0971 3.68342 20.7065 3.29289C20.316 2.90237 19.6829 2.90237 19.2923 3.29289L20.7065 4.70711ZM3.29233 19.2929C2.9018 19.6834 2.9018 20.3166 3.29233 20.7071C3.68285 21.0976 4.31602 21.0976 4.70654 20.7071L3.29233 19.2929ZM11.9994 4C7.5607 4 3.7381 6.62905 1.99991 10.4106L3.81713 11.2459C5.24116 8.14781 8.37052 6 11.9994 6V4ZM11.9994 20C16.4382 20 20.2608 17.371 21.999 13.5894L20.1818 12.7541C18.7577 15.8522 15.6284 18 11.9994 18V20ZM1.99991 10.4106C1.53649 11.4188 1.53649 12.5812 1.99991 13.5894L3.81713 12.7541C3.59741 12.2761 3.59741 11.7239 3.81713 11.2459L1.99991 10.4106ZM20.1818 11.2459C20.4015 11.7239 20.4015 12.2761 20.1818 12.7541L21.999 13.5894C22.4624 12.5812 22.4624 11.4188 21.999 10.4106L20.1818 11.2459ZM21.999 10.4106C21.1216 8.50182 19.7148 6.88861 17.9668 5.75789L16.8805 7.43716C18.3123 8.36336 19.4643 9.68497 20.1818 11.2459L21.999 10.4106ZM6.08371 18.2753C7.7925 19.3672 9.8236 20 11.9994 20V18C10.2165 18 8.55741 17.4826 7.16062 16.59L6.08371 18.2753ZM1.99991 13.5894C2.32888 14.3051 2.73224 14.9791 3.19995 15.6017L4.79894 14.4003C4.41595 13.8905 4.08601 13.3391 3.81713 12.7541L1.99991 13.5894ZM14.1984 4.22002C13.4871 4.07563 12.7516 4 11.9994 4V6C12.6172 6 13.2194 6.06209 13.8005 6.18005L14.1984 4.22002ZM9.17102 14.8284C10.7331 16.3905 13.2658 16.3905 14.8279 14.8284L13.4137 13.4142C12.6326 14.1953 11.3663 14.1953 10.5852 13.4142L9.17102 14.8284ZM14.8279 14.8284C16.39 13.2663 16.39 10.7337 14.8279 9.17157L13.4137 10.5858C14.1947 11.3668 14.1947 12.6332 13.4137 13.4142L14.8279 14.8284ZM19.2923 3.29289L3.29233 19.2929L4.70654 20.7071L20.7065 4.70711L19.2923 3.29289Z" fill="#111111"/>
</svg>
