<svg width="24" height="24" viewBox="0 0 24 24" fill="none" xmlns="http://www.w3.org/2000/svg">
<path d="M6 2C5.44772 2 5 2.44772 5 3C5 3.55228 5.44772 4 6 4H16C16.5523 4 17 4.44772 17 5V19C17 19.5523 16.5523 20 16 20H6C5.44772 20 5 20.4477 5 21C5 21.5523 5.44772 22 6 22H16C17.6569 22 19 20.6569 19 19V5C19 3.34315 17.6569 2 16 2H6Z" fill="#333333"/>
<path d="M5.29289 8.70711C4.90237 8.31658 4.90237 7.68342 5.29289 7.29289C5.68342 6.90237 6.31658 6.90237 6.70711 7.29289L10.7071 11.2929C11.0976 11.6834 11.0976 12.3166 10.7071 12.7071L6.70711 16.7071C6.31658 17.0976 5.68342 17.0976 5.29289 16.7071C4.90237 16.3166 4.90237 15.6834 5.29289 15.2929L8.58579 12L5.29289 8.70711Z" fill="#333333"/>
</svg>
