<svg width="40" height="40" viewBox="0 0 40 40" fill="none" xmlns="http://www.w3.org/2000/svg">
<circle cx="20" cy="20" r="20" fill="#888888" fill-opacity="0.3"/>
<path d="M26.9599 23.818C26.699 24.4206 26.3902 24.9754 26.0324 25.4854C25.5448 26.1807 25.1455 26.662 24.8378 26.9293C24.3607 27.368 23.8496 27.5926 23.3023 27.6054C22.9094 27.6054 22.4356 27.4936 21.8841 27.2668C21.3307 27.0411 20.8221 26.9293 20.3572 26.9293C19.8695 26.9293 19.3465 27.0411 18.787 27.2668C18.2267 27.4936 17.7754 27.6118 17.4303 27.6235C16.9054 27.6459 16.3823 27.4148 15.8602 26.9293C15.5269 26.6386 15.11 26.1403 14.6106 25.4343C14.0748 24.6805 13.6343 23.8063 13.2892 22.8096C12.9196 21.7331 12.7344 20.6907 12.7344 19.6815C12.7344 18.5255 12.9842 17.5284 13.4845 16.6929C13.8777 16.0218 14.4009 15.4923 15.0556 15.1037C15.7103 14.7151 16.4178 14.517 17.1796 14.5043C17.5965 14.5043 18.1432 14.6333 18.8225 14.8867C19.4999 15.141 19.9349 15.2699 20.1256 15.2699C20.2681 15.2699 20.7513 15.1191 21.5705 14.8185C22.3451 14.5398 22.9989 14.4244 23.5345 14.4698C24.9858 14.587 26.0761 15.1591 26.8012 16.1898C25.5032 16.9762 24.8612 18.0777 24.874 19.4908C24.8857 20.5915 25.285 21.5074 26.0697 22.2346C26.4253 22.5722 26.8225 22.8331 27.2644 23.0183C27.1686 23.2962 27.0674 23.5624 26.9599 23.818ZM23.6314 10.7201C23.6314 11.5828 23.3162 12.3883 22.688 13.1339C21.9298 14.0202 21.0128 14.5323 20.0184 14.4515C20.0058 14.348 19.9984 14.2391 19.9984 14.1246C19.9984 13.2964 20.359 12.4101 20.9992 11.6854C21.3189 11.3185 21.7254 11.0134 22.2184 10.77C22.7103 10.5303 23.1756 10.3977 23.6133 10.375C23.626 10.4903 23.6314 10.6057 23.6314 10.7201V10.7201Z" fill="white"/>
</svg>
