<svg width="24" height="24" viewBox="0 0 24 24" fill="none" xmlns="http://www.w3.org/2000/svg">
<path fill-rule="evenodd" clip-rule="evenodd" d="M14 4C17.3137 4 20 6.68629 20 10C20 13.3137 17.3137 16 14 16C12.3429 16 10.8442 15.3295 9.75736 14.2426C8.67048 13.1558 8 11.6571 8 10C8 6.68629 10.6863 4 14 4ZM22 10C22 5.58172 18.4183 2 14 2C9.58172 2 6 5.58172 6 10C6 11.8483 6.62772 13.5513 7.6802 14.9056L2.29289 20.2929C1.90237 20.6834 1.90237 21.3166 2.29289 21.7071C2.68342 22.0976 3.31658 22.0976 3.70711 21.7071L9.09441 16.3198C10.4487 17.3723 12.1517 18 14 18C18.4183 18 22 14.4183 22 10Z" fill="#333333"/>
</svg>
