<svg width="24" height="24" viewBox="0 0 24 24" fill="none" xmlns="http://www.w3.org/2000/svg">
<path d="M4 10.857V18.416C4 19.5206 4.89543 20.416 6 20.416H8V20.416C8.55228 20.416 9 19.9683 9 19.416V13.416C9 12.8637 9.44772 12.416 10 12.416H14C14.5523 12.416 15 12.8637 15 13.416V19.416C15 19.9683 15.4477 20.416 16 20.416V20.416H18C19.1046 20.416 20 19.5206 20 18.416V10.857C20 9.65724 19.4615 8.52086 18.533 7.76114L13.2665 3.45221C12.5297 2.84943 11.4703 2.84943 10.7335 3.45221L5.46705 7.76114C4.53851 8.52086 4 9.65724 4 10.857Z" fill="#333333"/>
<path d="M8 20.416H6C4.89543 20.416 4 19.5206 4 18.416V10.857C4 9.65724 4.53851 8.52086 5.46705 7.76114L10.7335 3.45221C11.4703 2.84943 12.5297 2.84943 13.2665 3.45221L18.533 7.76114C19.4615 8.52086 20 9.65724 20 10.857V18.416C20 19.5206 19.1046 20.416 18 20.416H16M8 20.416H16M8 20.416V20.416C8.55228 20.416 9 19.9683 9 19.416V13.416C9 12.8637 9.44772 12.416 10 12.416H14C14.5523 12.416 15 12.8637 15 13.416V19.416C15 19.9683 15.4477 20.416 16 20.416V20.416" stroke="#333333" stroke-width="2" stroke-linecap="round"/>
</svg>
