<svg width="198" height="48" viewBox="0 0 198 48" fill="none" xmlns="http://www.w3.org/2000/svg">
<g filter="url(#filter0_dd_1422_8840)">
<rect x="2" y="1" width="194" height="44" rx="6" fill="#03C75A" shape-rendering="crispEdges"/>
<path d="M42 30.7033V15.2959H47.3333L52.6667 22.9996V15.2959H58V30.7033H52.6667L47.3333 22.9996V30.7033H42Z" fill="white"/>
<path d="M75.302 17.794H76.45V25.214H75.302V17.794ZM75.302 24.878H76.114C77.584 24.878 78.956 24.808 80.552 24.486L80.706 25.48C79.054 25.816 77.64 25.886 76.114 25.886H75.302V24.878ZM84.332 16.436H85.452V29.092H84.332V16.436ZM78.816 20.678H81.98V21.644H78.816V20.678ZM81.658 16.73H82.75V28.448H81.658V16.73ZM95.9229 16.422H97.0849V29.106H95.9229V16.422ZM90.4069 17.402C92.2829 17.402 93.6269 19.124 93.6269 21.812C93.6269 24.514 92.2829 26.236 90.4069 26.236C88.5449 26.236 87.2009 24.514 87.2009 21.812C87.2009 19.124 88.5449 17.402 90.4069 17.402ZM90.4069 18.452C89.1749 18.452 88.3069 19.768 88.3069 21.812C88.3069 23.87 89.1749 25.214 90.4069 25.214C91.6529 25.214 92.5069 23.87 92.5069 21.812C92.5069 19.768 91.6529 18.452 90.4069 18.452ZM108.046 16.422H109.194V29.106H108.046V16.422ZM104.7 21.126H108.382V22.078H104.7V21.126ZM99.2818 17.43H100.43V20.72H103.944V17.43H105.092V25.928H99.2818V17.43ZM100.43 21.644V24.962H103.944V21.644H100.43ZM113.449 26.572H124.915V27.538H113.449V26.572ZM118.573 23.856H119.735V26.978H118.573V23.856ZM114.835 17.374H123.501V21.21H116.025V23.744H114.877V20.272H122.353V18.312H114.835V17.374ZM114.877 23.254H123.795V24.206H114.877V23.254ZM126.72 17.78H134.868V18.718H126.72V17.78ZM125.488 26.278H136.926V27.244H125.488V26.278ZM134.252 17.78H135.386V19.04C135.386 20.664 135.386 22.47 134.91 25.2L133.748 25.088C134.252 22.498 134.252 20.608 134.252 19.04V17.78ZM146.725 16.45H147.901V25.69H146.725V16.45ZM139.767 27.86H148.279V28.812H139.767V27.86ZM139.767 24.738H140.915V28.182H139.767V24.738ZM141.111 17.318C143.001 17.318 144.401 18.606 144.401 20.44C144.401 22.26 143.001 23.562 141.111 23.562C139.221 23.562 137.807 22.26 137.807 20.44C137.807 18.606 139.221 17.318 141.111 17.318ZM141.111 18.326C139.879 18.326 138.941 19.194 138.941 20.44C138.941 21.672 139.879 22.54 141.111 22.54C142.343 22.54 143.281 21.672 143.281 20.44C143.281 19.194 142.343 18.326 141.111 18.326Z" fill="white"/>
</g>
<defs>
<filter id="filter0_dd_1422_8840" x="0" y="0" width="198" height="48" filterUnits="userSpaceOnUse" color-interpolation-filters="sRGB">
<feFlood flood-opacity="0" result="BackgroundImageFix"/>
<feColorMatrix in="SourceAlpha" type="matrix" values="0 0 0 0 0 0 0 0 0 0 0 0 0 0 0 0 0 0 127 0" result="hardAlpha"/>
<feOffset dy="1"/>
<feGaussianBlur stdDeviation="1"/>
<feComposite in2="hardAlpha" operator="out"/>
<feColorMatrix type="matrix" values="0 0 0 0 0 0 0 0 0 0 0 0 0 0 0 0 0 0 0.25 0"/>
<feBlend mode="normal" in2="BackgroundImageFix" result="effect1_dropShadow_1422_8840"/>
<feColorMatrix in="SourceAlpha" type="matrix" values="0 0 0 0 0 0 0 0 0 0 0 0 0 0 0 0 0 0 127 0" result="hardAlpha"/>
<feOffset/>
<feComposite in2="hardAlpha" operator="out"/>
<feColorMatrix type="matrix" values="0 0 0 0 0 0 0 0 0 0 0 0 0 0 0 0 0 0 0.08 0"/>
<feBlend mode="normal" in2="effect1_dropShadow_1422_8840" result="effect2_dropShadow_1422_8840"/>
<feBlend mode="normal" in="SourceGraphic" in2="effect2_dropShadow_1422_8840" result="shape"/>
</filter>
</defs>
</svg>
