<svg width="24" height="24" viewBox="0 0 24 24" fill="none" xmlns="http://www.w3.org/2000/svg">
<g id="eraser">
<path id="Icon" d="M9.17193 9.17225L14.8288 14.8291M8.00036 21.0007H20.0004M4.43431 18.4354L5.56569 19.5667C6.35772 20.3588 6.75374 20.7548 7.21039 20.9031C7.61208 21.0337 8.04477 21.0337 8.44646 20.9031C8.90312 20.7548 9.29913 20.3588 10.0912 19.5667L18.93 10.7279C19.722 9.93585 20.1181 9.53984 20.2664 9.08318C20.3969 8.68149 20.3969 8.2488 20.2664 7.84711C20.1181 7.39045 19.722 6.99444 18.93 6.2024L17.7986 5.07103C17.0066 4.279 16.6106 3.88298 16.1539 3.73461C15.7522 3.60409 15.3195 3.60409 14.9179 3.73461C14.4612 3.88298 14.0652 4.279 13.2732 5.07103L4.43431 13.9099C3.64228 14.7019 3.24626 15.0979 3.09789 15.5546C2.96737 15.9563 2.96737 16.389 3.09789 16.7906C3.24626 17.2473 3.64228 17.6433 4.43431 18.4354Z" stroke="#111111" stroke-width="2" stroke-linecap="round"/>
</g>
</svg>
