<svg width="198" height="48" viewBox="0 0 198 48" fill="none" xmlns="http://www.w3.org/2000/svg">
<g filter="url(#filter0_dd_1422_8844)">
<rect x="2" y="1" width="194" height="44" rx="6" fill="#FEE500" shape-rendering="crispEdges"/>
<g clip-path="url(#clip0_1422_8844)">
<path opacity="0.902" fill-rule="evenodd" clip-rule="evenodd" d="M51 14.9443C46.29 14.9443 42 18.7303 42 21.9333C42 24.3333 43.558 26.4503 45.931 27.7083L44.933 31.3743C44.844 31.6993 45.213 31.9573 45.496 31.7703L49.873 28.8653C50.242 28.9013 50.618 28.9223 51 28.9223C55.97 28.9223 60 25.7933 60 21.9333C60 18.7303 55.97 14.9443 51 14.9443Z" fill="black"/>
</g>
<path d="M82.076 17.752H83.21C83.21 21.406 81.978 24.766 77.442 27.02L76.812 26.124C80.816 24.15 82.076 21.322 82.076 17.878V17.752ZM77.498 17.752H82.762V18.69H77.498V17.752ZM81.894 20.888V21.784L77.05 22.26L76.868 21.224L81.894 20.888ZM85.254 16.422H86.43V29.092H85.254V16.422ZM86.108 21.56H88.446V22.526H86.108V21.56ZM94.1149 17.752H95.2489C95.2489 21.406 94.0169 24.766 89.4809 27.02L88.8509 26.124C92.8549 24.15 94.1149 21.322 94.1149 17.878V17.752ZM89.5369 17.752H94.8009V18.69H89.5369V17.752ZM93.9329 20.888V21.784L89.0889 22.26L88.9069 21.224L93.9329 20.888ZM97.2929 16.422H98.4689V29.092H97.2929V16.422ZM98.1469 21.56H100.485V22.526H98.1469V21.56ZM105.902 23.59H107.064V26.74H105.902V23.59ZM106.49 17.262C109.164 17.262 111.082 18.564 111.082 20.58C111.082 22.596 109.164 23.898 106.49 23.898C103.816 23.898 101.884 22.596 101.884 20.58C101.884 18.564 103.816 17.262 106.49 17.262ZM106.49 18.186C104.474 18.186 103.004 19.138 103.004 20.58C103.004 22.022 104.474 22.974 106.49 22.974C108.492 22.974 109.962 22.022 109.962 20.58C109.962 19.138 108.492 18.186 106.49 18.186ZM100.778 26.516H112.244V27.482H100.778V26.516ZM115.449 26.572H126.915V27.538H115.449V26.572ZM120.573 23.856H121.735V26.978H120.573V23.856ZM116.835 17.374H125.501V21.21H118.025V23.744H116.877V20.272H124.353V18.312H116.835V17.374ZM116.877 23.254H125.795V24.206H116.877V23.254ZM128.72 17.78H136.868V18.718H128.72V17.78ZM127.488 26.278H138.926V27.244H127.488V26.278ZM136.252 17.78H137.386V19.04C137.386 20.664 137.386 22.47 136.91 25.2L135.748 25.088C136.252 22.498 136.252 20.608 136.252 19.04V17.78ZM148.725 16.45H149.901V25.69H148.725V16.45ZM141.767 27.86H150.279V28.812H141.767V27.86ZM141.767 24.738H142.915V28.182H141.767V24.738ZM143.111 17.318C145.001 17.318 146.401 18.606 146.401 20.44C146.401 22.26 145.001 23.562 143.111 23.562C141.221 23.562 139.807 22.26 139.807 20.44C139.807 18.606 141.221 17.318 143.111 17.318ZM143.111 18.326C141.879 18.326 140.941 19.194 140.941 20.44C140.941 21.672 141.879 22.54 143.111 22.54C144.343 22.54 145.281 21.672 145.281 20.44C145.281 19.194 144.343 18.326 143.111 18.326Z" fill="black" fill-opacity="0.85"/>
</g>
<defs>
<filter id="filter0_dd_1422_8844" x="0" y="0" width="198" height="48" filterUnits="userSpaceOnUse" color-interpolation-filters="sRGB">
<feFlood flood-opacity="0" result="BackgroundImageFix"/>
<feColorMatrix in="SourceAlpha" type="matrix" values="0 0 0 0 0 0 0 0 0 0 0 0 0 0 0 0 0 0 127 0" result="hardAlpha"/>
<feOffset dy="1"/>
<feGaussianBlur stdDeviation="1"/>
<feComposite in2="hardAlpha" operator="out"/>
<feColorMatrix type="matrix" values="0 0 0 0 0 0 0 0 0 0 0 0 0 0 0 0 0 0 0.25 0"/>
<feBlend mode="normal" in2="BackgroundImageFix" result="effect1_dropShadow_1422_8844"/>
<feColorMatrix in="SourceAlpha" type="matrix" values="0 0 0 0 0 0 0 0 0 0 0 0 0 0 0 0 0 0 127 0" result="hardAlpha"/>
<feOffset/>
<feComposite in2="hardAlpha" operator="out"/>
<feColorMatrix type="matrix" values="0 0 0 0 0 0 0 0 0 0 0 0 0 0 0 0 0 0 0.08 0"/>
<feBlend mode="normal" in2="effect1_dropShadow_1422_8844" result="effect2_dropShadow_1422_8844"/>
<feBlend mode="normal" in="SourceGraphic" in2="effect2_dropShadow_1422_8844" result="shape"/>
</filter>
<clipPath id="clip0_1422_8844">
<rect width="18" height="18" fill="white" transform="translate(42 14)"/>
</clipPath>
</defs>
</svg>
