<svg width="24" height="24" viewBox="0 0 24 24" fill="none" xmlns="http://www.w3.org/2000/svg">
<path d="M5.18404 20.564L5.63803 19.673L5.63803 19.673L5.18404 20.564ZM3.43597 18.816L2.54497 19.27L2.54497 19.27L3.43597 18.816ZM18.816 3.43597L19.27 2.54497L19.27 2.54497L18.816 3.43597ZM20.564 5.18404L19.673 5.63803L19.673 5.63803L20.564 5.18404ZM5.18404 3.43597L5.63803 4.32698L5.63803 4.32698L5.18404 3.43597ZM3.43597 5.18404L4.32698 5.63803L4.32698 5.63803L3.43597 5.18404ZM20 11C20 11.5523 20.4477 12 21 12C21.5523 12 22 11.5523 22 11H20ZM11 22C11.5523 22 12 21.5523 12 21C12 20.4477 11.5523 20 11 20V22ZM8 7C7.44772 7 7 7.44772 7 8C7 8.55228 7.44772 9 8 9V7ZM16 9C16.5523 9 17 8.55228 17 8C17 7.44772 16.5523 7 16 7V9ZM8 11C7.44772 11 7 11.4477 7 12C7 12.5523 7.44772 13 8 13V11ZM16 13C16.5523 13 17 12.5523 17 12C17 11.4477 16.5523 11 16 11V13ZM8 15C7.44772 15 7 15.4477 7 16C7 16.5523 7.44772 17 8 17V15ZM12 17C12.5523 17 13 16.5523 13 16C13 15.4477 12.5523 15 12 15V17ZM14.2532 21.4966L15.2019 21.8128L15.2019 21.8128L14.2532 21.4966ZM14.716 20.1082L13.7673 19.792L13.7673 19.792L14.716 20.1082ZM15.1935 19.3356L15.9007 20.0427L15.9007 20.0427L15.1935 19.3356ZM19.8054 14.7237L19.0983 14.0166L19.0983 14.0166L19.8054 14.7237ZM22.2763 17.1946L22.9834 17.9017L22.9834 17.9017L22.2763 17.1946ZM17.6644 21.8065L16.9573 21.0993L16.9573 21.0993L17.6644 21.8065ZM16.8918 22.284L17.208 23.2327L17.208 23.2327L16.8918 22.284ZM15.5034 22.7468L15.8196 23.6955L15.8196 23.6955L15.5034 22.7468ZM17.4112 22.0429L18.0134 22.8412L18.0134 22.8412L17.4112 22.0429ZM17.2165 22.1632L16.7718 21.2675L16.7718 21.2675L17.2165 22.1632ZM22.2763 14.7237L21.5692 15.4308L21.5692 15.4308L22.2763 14.7237ZM22.8715 15.4106L23.7676 14.9666L23.7676 14.9666L22.8715 15.4106ZM22.8715 16.5077L23.7676 16.9517L23.7676 16.9517L22.8715 16.5077ZM20.4923 14.1285L20.9363 15.0245L20.9363 15.0245L20.4923 14.1285ZM21.5894 14.1285L21.1454 15.0245L21.1454 15.0245L21.5894 14.1285ZM14.8368 19.7835L15.7325 20.2282L15.7325 20.2282L14.8368 19.7835ZM14.9571 19.5888L14.1588 18.9866L14.1588 18.9866L14.9571 19.5888ZM14.023 22.6026L14.9649 22.2668L14.9649 22.2668L14.023 22.6026ZM14.3974 22.977L14.0615 23.9189L14.0615 23.9189L14.3974 22.977ZM9.4 4H14.6V2H9.4V4ZM4 14.6V9.4H2V14.6H4ZM9.4 20C8.26339 20 7.47108 19.9992 6.85424 19.9488C6.24907 19.8994 5.90138 19.8072 5.63803 19.673L4.73005 21.455C5.32234 21.7568 5.96253 21.8826 6.69138 21.9422C7.40855 22.0008 8.2964 22 9.4 22V20ZM2 14.6C2 15.7036 1.99922 16.5914 2.05782 17.3086C2.11737 18.0375 2.24318 18.6777 2.54497 19.27L4.32698 18.362C4.19279 18.0986 4.10062 17.7509 4.05118 17.1458C4.00078 16.5289 4 15.7366 4 14.6H2ZM5.63803 19.673C5.07354 19.3854 4.6146 18.9265 4.32698 18.362L2.54497 19.27C3.02433 20.2108 3.78924 20.9757 4.73005 21.455L5.63803 19.673ZM14.6 4C15.7366 4 16.5289 4.00078 17.1458 4.05118C17.7509 4.10062 18.0986 4.19279 18.362 4.32698L19.27 2.54497C18.6777 2.24318 18.0375 2.11737 17.3086 2.05782C16.5914 1.99922 15.7036 2 14.6 2V4ZM22 9.4C22 8.2964 22.0008 7.40855 21.9422 6.69138C21.8826 5.96253 21.7568 5.32234 21.455 4.73005L19.673 5.63803C19.8072 5.90138 19.8994 6.24907 19.9488 6.85424C19.9992 7.47108 20 8.26339 20 9.4H22ZM18.362 4.32698C18.9265 4.6146 19.3854 5.07354 19.673 5.63803L21.455 4.73005C20.9757 3.78924 20.2108 3.02433 19.27 2.54497L18.362 4.32698ZM9.4 2C8.2964 2 7.40855 1.99922 6.69138 2.05782C5.96253 2.11737 5.32234 2.24318 4.73005 2.54497L5.63803 4.32698C5.90138 4.19279 6.24907 4.10062 6.85424 4.05118C7.47108 4.00078 8.26339 4 9.4 4V2ZM4 9.4C4 8.26339 4.00078 7.47108 4.05118 6.85424C4.10062 6.24907 4.19279 5.90138 4.32698 5.63803L2.54497 4.73005C2.24318 5.32234 2.11737 5.96253 2.05782 6.69138C1.99922 7.40855 2 8.2964 2 9.4H4ZM4.73005 2.54497C3.78924 3.02433 3.02433 3.78924 2.54497 4.73005L4.32698 5.63803C4.6146 5.07354 5.07354 4.6146 5.63803 4.32698L4.73005 2.54497ZM20 9.4V11H22V9.4H20ZM9.4 22H11V20H9.4V22ZM8 9H16V7H8V9ZM8 13H16V11H8V13ZM8 17H12V15H8V17ZM15.2019 21.8128L15.6647 20.4244L13.7673 19.792L13.3045 21.1804L15.2019 21.8128ZM15.9007 20.0427L20.5125 15.4308L19.0983 14.0166L14.4864 18.6284L15.9007 20.0427ZM21.5692 16.4875L16.9573 21.0993L18.3716 22.5136L22.9834 17.9017L21.5692 16.4875ZM16.5756 21.3353L15.1872 21.7981L15.8196 23.6955L17.208 23.2327L16.5756 21.3353ZM16.9573 21.0993C16.8922 21.1645 16.8571 21.1994 16.83 21.2251C16.8071 21.2468 16.8038 21.2484 16.8089 21.2446L18.0134 22.8412C18.1504 22.7378 18.2674 22.6177 18.3716 22.5136L16.9573 21.0993ZM17.208 23.2327C17.3478 23.1861 17.5075 23.1352 17.6612 23.0588L16.7718 21.2675C16.7775 21.2646 16.7746 21.2669 16.7449 21.2777C16.7099 21.2904 16.663 21.3061 16.5756 21.3353L17.208 23.2327ZM16.8089 21.2446C16.7973 21.2533 16.7849 21.261 16.7718 21.2675L17.6612 23.0588C17.7851 22.9973 17.903 22.9245 18.0134 22.8412L16.8089 21.2446ZM21.5692 15.4308C21.7456 15.6072 21.8483 15.7104 21.9205 15.7913C21.9881 15.867 21.9871 15.878 21.9755 15.8546L23.7676 14.9666C23.5863 14.6008 23.2631 14.2963 22.9834 14.0166L21.5692 15.4308ZM22.9834 17.9017C23.2631 17.622 23.5863 17.3175 23.7676 16.9517L21.9755 16.0637C21.9871 16.0403 21.9881 16.0513 21.9205 16.127C21.8483 16.2079 21.7456 16.3111 21.5692 16.4875L22.9834 17.9017ZM21.9755 15.8546C22.0082 15.9205 22.0082 15.9978 21.9755 16.0637L23.7676 16.9517C24.0775 16.3263 24.0775 15.592 23.7676 14.9666L21.9755 15.8546ZM20.5125 15.4308C20.6889 15.2544 20.7921 15.1517 20.873 15.0795C20.9487 15.0119 20.9597 15.0129 20.9363 15.0245L20.0483 13.2324C19.6825 13.4137 19.378 13.7369 19.0983 14.0166L20.5125 15.4308ZM22.9834 14.0166C22.7037 13.7369 22.3992 13.4137 22.0334 13.2324L21.1454 15.0245C21.122 15.0129 21.133 15.0119 21.2087 15.0795C21.2896 15.1517 21.3928 15.2544 21.5692 15.4308L22.9834 14.0166ZM20.9363 15.0245C21.0022 14.9918 21.0795 14.9918 21.1454 15.0245L22.0334 13.2324C21.408 12.9225 20.6737 12.9225 20.0483 13.2324L20.9363 15.0245ZM15.6647 20.4244C15.6938 20.337 15.7096 20.2901 15.7223 20.2551C15.7332 20.2253 15.7354 20.2225 15.7325 20.2282L13.9412 19.3388C13.8648 19.4925 13.8139 19.6522 13.7673 19.792L15.6647 20.4244ZM14.4864 18.6284C14.3823 18.7326 14.2622 18.8496 14.1588 18.9866L15.7554 20.1911C15.7516 20.1962 15.7532 20.1929 15.7749 20.17C15.8006 20.1429 15.8355 20.1078 15.9007 20.0427L14.4864 18.6284ZM15.7325 20.2282C15.739 20.2151 15.7467 20.2027 15.7554 20.1911L14.1588 18.9866C14.0755 19.097 14.0027 19.2149 13.9412 19.3388L15.7325 20.2282ZM13.3045 21.1804C13.2102 21.4632 13.1166 21.7409 13.0623 21.9719C13.0115 22.1881 12.9439 22.5537 13.0811 22.9385L14.9649 22.2668C14.9998 22.3647 15.0008 22.4408 14.9998 22.4681C14.9989 22.4906 14.9965 22.4839 15.0093 22.4295C15.0217 22.3768 15.0424 22.3033 15.0762 22.196C15.1097 22.0894 15.1508 21.9661 15.2019 21.8128L13.3045 21.1804ZM15.1872 21.7981C15.0339 21.8492 14.9106 21.8903 14.804 21.9238C14.6967 21.9576 14.6232 21.9783 14.5705 21.9907C14.5161 22.0035 14.5094 22.0011 14.5319 22.0002C14.5592 21.9992 14.6353 22.0002 14.7332 22.0351L14.0615 23.9189C14.4463 24.0561 14.8119 23.9884 15.0281 23.9377C15.2591 23.8834 15.5368 23.7898 15.8196 23.6955L15.1872 21.7981ZM13.0811 22.9385C13.2442 23.3959 13.6041 23.7558 14.0615 23.9189L14.7332 22.0351C14.8413 22.0736 14.9264 22.1587 14.9649 22.2668L13.0811 22.9385Z" fill="#111111"/>
</svg>
