<svg width="24" height="24" viewBox="0 0 24 24" fill="none" xmlns="http://www.w3.org/2000/svg">
<path d="M17.9974 13.1809V10.0001C17.9974 6.67784 15.3223 4.00012 12 4.00012C8.67772 4.00012 5.96637 6.56368 5.96637 10.0001V13.1594C5.96637 13.6426 5.89106 14.1226 5.74334 14.5809L5.00488 16.8724C4.98466 16.9352 5.02981 17 5.09375 17H18.8632C18.9308 17 18.9788 16.9341 18.958 16.8698L18.2146 14.5627C18.0707 14.1162 17.9974 13.65 17.9974 13.1809Z" fill="#333333"/>
<path d="M14.6457 20.0001C13.9406 20.6224 13.0144 21 12 21C10.9856 21 10.0594 20.6224 9.35426 20.0001M17.9974 13.1809V10.0001C17.9974 6.67784 15.3223 4.00012 12 4.00012C8.67772 4.00012 5.96637 6.56368 5.96637 10.0001V13.1594C5.96637 13.6426 5.89106 14.1226 5.74334 14.5809L5.00488 16.8724C4.98466 16.9352 5.02981 17 5.09375 17H18.8632C18.9308 17 18.9788 16.9341 18.958 16.8698L18.2146 14.5627C18.0707 14.1162 17.9974 13.65 17.9974 13.1809Z" stroke="#333333" stroke-width="2" stroke-linecap="round"/>
</svg>
